<svg width="152" height="24" fill="none" xmlns="http://www.w3.org/2000/svg"><path d="M6.092 4.269c1 0 1.883.205 2.648.616.781.396 1.39.894 1.828 1.494V4.482h2.694v13.28c0 1.203-.25 2.27-.75 3.203a5.414 5.414 0 01-2.179 2.229C9.396 23.73 8.271 24 6.96 24c-1.75 0-3.202-.419-4.358-1.257-.706-.502-1.225-1.115-1.558-1.84-.354-.77.33-1.527 1.177-1.527.63 0 1.154.442 1.547.934.213.266.48.5.802.702.672.427 1.469.64 2.39.64 1.078 0 1.945-.332 2.601-.996.672-.664 1.008-1.628 1.008-2.893V15.58c-.453.617-1.07 1.138-1.851 1.565-.766.411-1.64.617-2.625.617A5.845 5.845 0 013 16.909c-.921-.585-1.656-1.391-2.202-2.419C.266 13.447 0 12.27 0 10.956 0 9.645.266 8.482.797 7.47c.546-1.011 1.28-1.794 2.202-2.347a5.846 5.846 0 013.093-.854zm4.476 6.735c0-.901-.188-1.684-.563-2.348-.359-.664-.835-1.17-1.429-1.518a3.736 3.736 0 00-1.921-.521c-.688 0-1.328.174-1.922.521-.593.332-1.078.83-1.453 1.494-.359.649-.538 1.423-.538 2.325 0 .9.18 1.691.538 2.371.375.68.86 1.202 1.453 1.565a3.82 3.82 0 001.922.522c.687 0 1.327-.174 1.921-.522.594-.348 1.07-.853 1.43-1.518.374-.68.562-1.47.562-2.371zm5.312-.047c0-1.313.266-2.475.797-3.487.547-1.011 1.281-1.794 2.203-2.347a5.845 5.845 0 013.093-.854c1.015 0 1.898.205 2.648.616.765.396 1.374.894 1.827 1.494V4.482h2.695V17.55h-2.695v-1.944c-.453.616-1.07 1.13-1.85 1.541-.782.411-1.672.617-2.672.617a5.684 5.684 0 01-3.046-.854c-.922-.585-1.656-1.391-2.203-2.419-.53-1.043-.796-2.221-.796-3.534zm10.568.047c0-.901-.187-1.684-.562-2.348-.36-.664-.836-1.17-1.43-1.518a3.735 3.735 0 00-1.92-.521c-.688 0-1.329.174-1.922.521-.594.332-1.078.83-1.453 1.494-.36.649-.539 1.423-.539 2.325 0 .9.18 1.691.539 2.371.375.68.86 1.202 1.453 1.565a3.82 3.82 0 001.921.522 3.73 3.73 0 001.921-.522c.594-.348 1.07-.853 1.43-1.518.375-.68.562-1.47.562-2.371zM48.28 4.269c1.016 0 1.922.213 2.718.64a4.509 4.509 0 011.899 1.897c.468.838.702 1.85.702 3.036v7.707h-2.647v-7.304c0-1.17-.29-2.063-.867-2.68-.578-.632-1.367-.948-2.367-.948s-1.796.316-2.39.948c-.578.617-.867 1.51-.867 2.68v7.304h-2.648v-7.304c0-1.17-.289-2.063-.867-2.68-.578-.632-1.367-.948-2.366-.948-1 0-1.797.316-2.39.948-.578.617-.867 1.51-.867 2.68v7.304H32.65V4.482h2.672v1.494a4.446 4.446 0 011.663-1.257 5.22 5.22 0 012.156-.45c1.031 0 1.953.221 2.765.664a4.513 4.513 0 011.875 1.92c.39-.79 1-1.414 1.827-1.873a5.285 5.285 0 012.671-.711zm20.552 6.427c0 .49-.032.933-.094 1.328h-9.865c.078 1.043.46 1.881 1.148 2.514.688.632 1.531.948 2.53.948 1.438 0 2.453-.609 3.047-1.826h2.882c-.39 1.202-1.101 2.19-2.132 2.965-1.016.758-2.28 1.138-3.796 1.138-1.234 0-2.343-.277-3.328-.83a6.169 6.169 0 01-2.296-2.372c-.546-1.027-.82-2.213-.82-3.557 0-1.344.266-2.522.797-3.534.547-1.027 1.304-1.818 2.273-2.371.984-.554 2.108-.83 3.374-.83 1.218 0 2.304.269 3.257.806a5.646 5.646 0 012.226 2.277c.531.964.797 2.079.797 3.344zm-2.789-.854c-.016-.996-.367-1.795-1.054-2.395-.688-.601-1.539-.902-2.554-.902-.922 0-1.71.3-2.367.902-.656.585-1.047 1.383-1.171 2.395h7.146z" fill="#101828"/><path d="M76.451 15.13l5.286-13.762a1.307 1.307 0 112.432.958l-5.56 13.766a2.33 2.33 0 01-4.341-.055l-3.66-9.764a1.325 1.325 0 112.495-.896l3.348 9.753zm20.343-4.434c0 .49-.031.933-.094 1.328h-9.865c.079 1.043.461 1.881 1.149 2.514.687.632 1.53.948 2.53.948 1.438 0 2.453-.609 3.046-1.826h2.882c-.39 1.202-1.1 2.19-2.132 2.965-1.015.758-2.28 1.138-3.796 1.138-1.234 0-2.343-.277-3.327-.83a6.169 6.169 0 01-2.296-2.372c-.547-1.027-.82-2.213-.82-3.557 0-1.344.265-2.522.796-3.534.547-1.027 1.305-1.818 2.273-2.371.984-.554 2.109-.83 3.374-.83 1.219 0 2.304.269 3.257.806a5.646 5.646 0 012.226 2.277c.531.964.797 2.079.797 3.344zm-2.788-.854c-.016-.996-.368-1.795-1.055-2.395-.687-.601-1.538-.902-2.554-.902-.922 0-1.71.3-2.367.902-.656.585-1.046 1.383-1.171 2.395h7.147zm11.931-5.573c1.015 0 1.921.213 2.718.64a4.51 4.51 0 011.898 1.897c.453.838.679 1.85.679 3.036v7.707h-2.647v-7.304c0-1.17-.289-2.063-.867-2.68-.578-.632-1.367-.948-2.367-.948s-1.796.316-2.39.948c-.578.617-.867 1.51-.867 2.68v7.304h-2.671V4.482h2.671v1.494a4.442 4.442 0 011.664-1.257c.687-.3 1.413-.45 2.179-.45zm7.812 6.688c0-1.313.266-2.475.797-3.487.547-1.011 1.281-1.794 2.203-2.347.937-.57 1.976-.854 3.116-.854.844 0 1.671.19 2.484.569.828.364 1.484.854 1.968 1.47V0h2.695v17.55h-2.695v-1.97c-.437.632-1.047 1.154-1.828 1.565-.765.411-1.648.617-2.647.617a5.844 5.844 0 01-3.093-.854c-.922-.585-1.656-1.391-2.203-2.419-.531-1.043-.797-2.221-.797-3.534zm10.568.047c0-.901-.187-1.684-.562-2.348-.36-.664-.836-1.17-1.43-1.518a3.733 3.733 0 00-1.921-.521 3.74 3.74 0 00-1.922.521c-.593.332-1.077.83-1.452 1.494-.36.649-.539 1.423-.539 2.325 0 .9.179 1.691.539 2.371.375.68.859 1.202 1.452 1.565a3.82 3.82 0 001.922.522c.687 0 1.328-.174 1.921-.522.594-.348 1.07-.854 1.43-1.518.375-.68.562-1.47.562-2.371zm11.803 6.759c-1.218 0-2.319-.277-3.303-.83a6.11 6.11 0 01-2.32-2.372c-.563-1.027-.844-2.213-.844-3.557 0-1.328.289-2.506.867-3.534a6.023 6.023 0 012.367-2.371c1-.554 2.116-.83 3.351-.83 1.234 0 2.351.276 3.35.83a6.023 6.023 0 012.367 2.371c.578 1.028.867 2.206.867 3.534 0 1.328-.297 2.506-.891 3.534a6.255 6.255 0 01-2.436 2.395c-1.016.553-2.141.83-3.375.83zm0-2.348c.688 0 1.328-.166 1.922-.498.609-.332 1.101-.83 1.476-1.494s.562-1.47.562-2.419c0-.949-.179-1.747-.539-2.395-.359-.664-.835-1.162-1.429-1.494a3.873 3.873 0 00-1.921-.498c-.688 0-1.328.166-1.922.498-.578.332-1.039.83-1.382 1.494-.344.648-.516 1.446-.516 2.395 0 1.407.352 2.498 1.055 3.273.718.759 1.617 1.138 2.694 1.138zm12.014-9.035a4.154 4.154 0 011.546-1.542c.656-.38 1.43-.57 2.32-.57v2.8h-.68c-1.046 0-1.843.268-2.39.806-.531.537-.796 1.47-.796 2.798v6.877h-2.671V4.482h2.671V6.38z" fill="#6941C6"/></svg>