<svg width="20" height="20" fill="none" xmlns="http://www.w3.org/2000/svg"><path d="M17.434 18.566a.8.8 0 001.132-1.132l-1.132 1.132zM14.7 13.568a.8.8 0 00-1.131 1.131l1.131-1.131zm.723-4.457a6.311 6.311 0 01-6.31 6.311v1.6a7.911 7.911 0 007.91-7.91h-1.6zm-6.31 6.311A6.311 6.311 0 012.8 9.112H1.2a7.911 7.911 0 007.911 7.91v-1.6zM2.8 9.112A6.311 6.311 0 019.111 2.8V1.2A7.911 7.911 0 001.2 9.111h1.6zM9.111 2.8a6.311 6.311 0 016.311 6.311h1.6A7.911 7.911 0 009.112 1.2v1.6zm9.455 14.634l-3.867-3.866-1.131 1.131 3.866 3.867 1.132-1.132z" fill="#98A2B3"/></svg>